<svg xmlns="http://www.w3.org/2000/svg" xmlns:xlink="http://www.w3.org/1999/xlink" width="173" zoomAndPan="magnify" viewBox="0 0 129.75 180.749999" height="241" preserveAspectRatio="xMidYMid meet" version="1.0"><defs><filter x="0%" y="0%" width="100%" height="100%" id="43736fd152"><feColorMatrix values="0 0 0 0 1 0 0 0 0 1 0 0 0 0 1 0 0 0 1 0" color-interpolation-filters="sRGB"/></filter><clipPath id="72a657a06f"><path d="M 59 135 L 101 135 L 101 177 L 59 177 Z M 59 135 " clip-rule="nonzero"/></clipPath><clipPath id="fd1089718a"><path d="M 81.84375 132.414062 L 103.378906 153.90625 L 78.195312 179.144531 L 56.660156 157.652344 Z M 81.84375 132.414062 " clip-rule="nonzero"/></clipPath><clipPath id="afcdf53d62"><path d="M 87.140625 137.703125 L 98.082031 148.617188 C 99.488281 150.019531 100.277344 151.925781 100.28125 153.910156 C 100.28125 155.894531 99.496094 157.800781 98.09375 159.203125 L 83.492188 173.835938 C 82.089844 175.242188 80.1875 176.03125 78.203125 176.035156 C 76.21875 176.035156 74.3125 175.25 72.90625 173.847656 L 61.96875 162.929688 C 60.5625 161.527344 59.769531 159.625 59.769531 157.640625 C 59.765625 155.65625 60.554688 153.75 61.957031 152.34375 L 76.554688 137.714844 C 77.957031 136.308594 79.863281 135.519531 81.847656 135.515625 C 83.832031 135.511719 85.738281 136.300781 87.140625 137.703125 Z M 87.140625 137.703125 " clip-rule="nonzero"/></clipPath><clipPath id="36bccfcb85"><path d="M 32 0.0507812 L 129.5 0.0507812 L 129.5 180.453125 L 32 180.453125 Z M 32 0.0507812 " clip-rule="nonzero"/></clipPath><clipPath id="273a2a9de2"><path d="M 29 147 L 61 147 L 61 178 L 29 178 Z M 29 147 " clip-rule="nonzero"/></clipPath><clipPath id="5349e9c2f1"><path d="M 27.390625 156.117188 L 51.230469 144.617188 L 62.726562 168.453125 L 38.890625 179.953125 Z M 27.390625 156.117188 " clip-rule="nonzero"/></clipPath><clipPath id="14330d4b6a"><path d="M 34.132812 152.863281 L 44.488281 147.871094 C 48.210938 146.074219 52.683594 147.636719 54.480469 151.359375 L 59.476562 161.710938 C 61.273438 165.4375 59.710938 169.910156 55.984375 171.707031 L 45.632812 176.699219 C 41.910156 178.496094 37.433594 176.933594 35.636719 173.210938 L 30.644531 162.859375 C 28.847656 159.136719 30.410156 154.660156 34.132812 152.863281 Z M 34.132812 152.863281 " clip-rule="nonzero"/></clipPath><clipPath id="5ed8d75d18"><path d="M 32 110 L 72 110 L 72 150 L 32 150 Z M 32 110 " clip-rule="nonzero"/></clipPath><clipPath id="81ed863a81"><path d="M 72.316406 115.347656 L 66.320312 150.378906 L 31.152344 144.355469 L 37.152344 109.324219 Z M 72.316406 115.347656 " clip-rule="nonzero"/></clipPath><clipPath id="3143f880f8"><path d="M 71.054688 122.726562 L 67.582031 143 C 67.246094 144.957031 66.148438 146.699219 64.527344 147.847656 C 62.90625 148.992188 60.898438 149.449219 58.941406 149.113281 L 38.566406 145.625 C 36.609375 145.289062 34.867188 144.191406 33.71875 142.570312 C 32.574219 140.949219 32.117188 138.941406 32.453125 136.984375 L 35.925781 116.710938 C 36.261719 114.753906 37.359375 113.007812 38.980469 111.863281 C 40.601562 110.714844 42.609375 110.261719 44.566406 110.59375 L 64.941406 114.085938 C 66.898438 114.417969 68.640625 115.519531 69.785156 117.136719 C 70.933594 118.757812 71.390625 120.769531 71.054688 122.726562 Z M 71.054688 122.726562 " clip-rule="nonzero"/></clipPath><clipPath id="7805e83ea4"><path d="M 14 78 L 54 78 L 54 113 L 14 113 Z M 14 78 " clip-rule="nonzero"/></clipPath><clipPath id="4f4f2b9846"><path d="M 12.984375 85.824219 L 46.75 76.347656 L 54.863281 105.257812 L 21.097656 114.734375 Z M 12.984375 85.824219 " clip-rule="nonzero"/></clipPath><clipPath id="5cff5b8cfe"><path d="M 20.191406 83.800781 L 39.433594 78.398438 C 43.414062 77.28125 47.546875 79.605469 48.664062 83.585938 L 52.734375 98.082031 C 53.851562 102.0625 51.53125 106.195312 47.550781 107.3125 L 28.304688 112.714844 C 24.324219 113.832031 20.191406 111.507812 19.074219 107.527344 L 15.003906 93.03125 C 13.886719 89.050781 16.210938 84.917969 20.191406 83.800781 Z M 20.191406 83.800781 " clip-rule="nonzero"/></clipPath><clipPath id="58075089dd"><path d="M 71 101 L 104 101 L 104 134 L 71 134 Z M 71 101 " clip-rule="nonzero"/></clipPath><clipPath id="d02eb347f4"><path d="M 85.871094 98.609375 L 106.59375 116.148438 L 89.054688 136.867188 L 68.332031 119.328125 Z M 85.871094 98.609375 " clip-rule="nonzero"/></clipPath><clipPath id="0ef77c6832"><path d="M 91.585938 103.445312 L 100.878906 111.3125 C 104.035156 113.984375 104.429688 118.707031 101.757812 121.863281 L 93.890625 131.15625 C 91.21875 134.3125 86.496094 134.703125 83.339844 132.03125 L 74.046875 124.167969 C 70.890625 121.496094 70.5 116.773438 73.171875 113.617188 L 81.035156 104.324219 C 83.707031 101.167969 88.429688 100.773438 91.585938 103.445312 Z M 91.585938 103.445312 " clip-rule="nonzero"/></clipPath><clipPath id="cbe122d161"><path d="M 51 64 L 96 64 L 96 109 L 51 109 Z M 51 64 " clip-rule="nonzero"/></clipPath><clipPath id="ee003ebe02"><path d="M 72.691406 111.5 L 48.597656 85.519531 L 74.578125 61.429688 L 98.667969 87.410156 Z M 72.691406 111.5 " clip-rule="nonzero"/></clipPath><clipPath id="d4d151e93f"><path d="M 67.601562 106.011719 L 53.6875 91.011719 C 50.878906 87.980469 51.054688 83.242188 54.085938 80.429688 L 69.089844 66.519531 C 72.121094 63.710938 76.855469 63.886719 79.667969 66.917969 L 93.578125 81.921875 C 96.390625 84.953125 96.210938 89.6875 93.179688 92.5 L 78.179688 106.410156 C 75.148438 109.222656 70.410156 109.042969 67.601562 106.011719 Z M 67.601562 106.011719 " clip-rule="nonzero"/></clipPath><clipPath id="173913f456"><path d="M 80 42 L 121 42 L 121 83 L 80 83 Z M 80 42 " clip-rule="nonzero"/></clipPath><clipPath id="951aedee71"><path d="M 123.339844 59.347656 L 103.769531 85.980469 L 77.136719 66.410156 L 96.703125 39.777344 Z M 123.339844 59.347656 " clip-rule="nonzero"/></clipPath><clipPath id="34ecfab809"><path d="M 118.90625 65.378906 L 108.203125 79.949219 C 107.027344 81.546875 105.261719 82.613281 103.300781 82.914062 C 101.339844 83.214844 99.335938 82.722656 97.738281 81.546875 L 83.167969 70.84375 C 81.566406 69.667969 80.5 67.902344 80.199219 65.941406 C 79.902344 63.980469 80.390625 61.976562 81.566406 60.378906 L 92.273438 45.808594 C 93.449219 44.207031 95.210938 43.140625 97.171875 42.839844 C 99.136719 42.542969 101.136719 43.03125 102.738281 44.207031 L 117.304688 54.914062 C 118.90625 56.089844 119.972656 57.851562 120.273438 59.8125 C 120.574219 61.777344 120.082031 63.777344 118.90625 65.378906 Z M 118.90625 65.378906 " clip-rule="nonzero"/></clipPath><clipPath id="90878499d5"><path d="M 33 53 L 60 53 L 60 80 L 33 80 Z M 33 53 " clip-rule="nonzero"/></clipPath><clipPath id="352e52e954"><path d="M 60.511719 54.773438 L 58.519531 80.316406 L 32.972656 78.320312 L 34.96875 52.777344 Z M 60.511719 54.773438 " clip-rule="nonzero"/></clipPath><clipPath id="403aa7daa6"><path d="M 59.929688 62.234375 L 59.101562 72.855469 C 58.777344 76.976562 55.175781 80.054688 51.054688 79.734375 L 40.4375 78.90625 C 36.316406 78.582031 33.234375 74.980469 33.554688 70.859375 L 34.386719 60.238281 C 34.707031 56.117188 38.308594 53.039062 42.429688 53.359375 L 53.050781 54.191406 C 57.171875 54.511719 60.253906 58.113281 59.929688 62.234375 Z M 59.929688 62.234375 " clip-rule="nonzero"/></clipPath><clipPath id="8136d33d7d"><path d="M 12 38 L 38 38 L 38 65 L 12 65 Z M 12 38 " clip-rule="nonzero"/></clipPath><clipPath id="326cefb067"><path d="M 24.238281 35.46875 L 40.875 50.683594 L 25.660156 67.324219 L 9.019531 52.105469 Z M 24.238281 35.46875 " clip-rule="nonzero"/></clipPath><clipPath id="457f1611a2"><path d="M 29.761719 40.519531 L 35.351562 45.632812 C 36.816406 46.972656 37.6875 48.839844 37.777344 50.824219 C 37.867188 52.804688 37.164062 54.742188 35.824219 56.207031 L 30.710938 61.800781 C 29.371094 63.265625 27.503906 64.136719 25.519531 64.226562 C 23.535156 64.3125 21.597656 63.613281 20.132812 62.273438 L 14.542969 57.160156 C 13.078125 55.820312 12.207031 53.953125 12.117188 51.96875 C 12.027344 49.984375 12.730469 48.046875 14.070312 46.582031 L 19.183594 40.992188 C 20.523438 39.527344 22.390625 38.652344 24.375 38.566406 C 26.359375 38.476562 28.296875 39.179688 29.761719 40.519531 Z M 29.761719 40.519531 " clip-rule="nonzero"/></clipPath><clipPath id="1b2ac289cc"><path d="M 0 51 L 129.5 51 L 129.5 179 L 0 179 Z M 0 51 " clip-rule="nonzero"/></clipPath><mask id="2781627003"><g filter="url(#43736fd152)"><rect x="-12.975" width="155.7" fill="#000000" y="-18.075" height="216.899999" fill-opacity="0.6"/></g></mask><clipPath id="c844e259e0"><path d="M 1.488281 0.394531 L 127.660156 0.394531 L 127.660156 127.554688 L 1.488281 127.554688 Z M 1.488281 0.394531 " clip-rule="nonzero"/></clipPath><clipPath id="b638611a9b"><path d="M 41.570312 127.554688 L 87.699219 127.554688 C 92.117188 127.554688 95.980469 124.589844 97.125 120.324219 L 127.332031 7.625 C 127.792969 5.898438 127.429688 4.058594 126.339844 2.640625 C 125.253906 1.222656 123.570312 0.394531 121.785156 0.394531 L 7.484375 0.394531 C 5.699219 0.394531 4.015625 1.222656 2.929688 2.640625 C 1.84375 4.058594 1.476562 5.898438 1.9375 7.625 L 32.148438 120.324219 C 33.289062 124.589844 37.15625 127.554688 41.570312 127.554688 Z M 41.570312 127.554688 " clip-rule="nonzero"/></clipPath><clipPath id="d0245538e6"><rect x="0" width="130" y="0" height="128"/></clipPath></defs><g clip-path="url(#72a657a06f)"><g clip-path="url(#fd1089718a)"><g clip-path="url(#afcdf53d62)"><path fill="#ececec" d="M 81.84375 132.414062 L 103.378906 153.90625 L 78.195312 179.144531 L 56.660156 157.652344 Z M 81.84375 132.414062 " fill-opacity="1" fill-rule="nonzero"/></g></g></g><path stroke-linecap="butt" transform="matrix(0.727122, 0.177853, -0.177853, 0.727122, 76.150244, 137.809146)" fill="none" stroke-linejoin="miter" d="M 0.741385 4.534694 C 5.009123 -0.178404 9.757873 -0.179544 14.972428 4.534992 " stroke="#87d3ff" stroke-width="2" stroke-opacity="1" stroke-miterlimit="4"/><g clip-path="url(#36bccfcb85)"><path stroke-linecap="butt" transform="matrix(-0.247987, 0.706287, -0.706287, -0.247987, 117.241951, 1.289123)" fill="none" stroke-linejoin="miter" d="M -0.00164005 2.500112 L 250.986573 2.50053 " stroke="#00af5b" stroke-width="5" stroke-opacity="1" stroke-miterlimit="4"/></g><g clip-path="url(#273a2a9de2)"><g clip-path="url(#5349e9c2f1)"><g clip-path="url(#14330d4b6a)"><path fill="#ececec" d="M 27.390625 156.117188 L 51.230469 144.617188 L 62.726562 168.453125 L 38.890625 179.953125 Z M 27.390625 156.117188 " fill-opacity="1" fill-rule="nonzero"/></g></g></g><path stroke-linecap="butt" transform="matrix(0.397567, -0.634255, 0.634255, 0.397567, 31.19208, 160.850582)" fill="none" stroke-linejoin="miter" d="M 0.705675 3.633731 C 4.237333 0.120491 8.026389 0.122713 12.062879 3.634325 " stroke="#87d3ff" stroke-width="2" stroke-opacity="1" stroke-miterlimit="4"/><g clip-path="url(#5ed8d75d18)"><g clip-path="url(#81ed863a81)"><g clip-path="url(#3143f880f8)"><path fill="#ececec" d="M 72.316406 115.347656 L 66.320312 150.378906 L 31.152344 144.355469 L 37.152344 109.324219 Z M 72.316406 115.347656 " fill-opacity="1" fill-rule="nonzero"/></g></g></g><path stroke-linecap="butt" transform="matrix(0.285628, 0.691922, -0.691922, 0.285628, 64.001036, 116.038728)" fill="none" stroke-linejoin="miter" d="M 0.70489 4.543547 C 5.450098 -0.181899 10.543644 -0.18504 15.981548 4.54377 " stroke="#87d3ff" stroke-width="2" stroke-opacity="1" stroke-miterlimit="4"/><g clip-path="url(#7805e83ea4)"><g clip-path="url(#4f4f2b9846)"><g clip-path="url(#5cff5b8cfe)"><path fill="#ececec" d="M 12.984375 85.824219 L 46.636719 76.378906 L 54.75 105.289062 L 21.097656 114.734375 Z M 12.984375 85.824219 " fill-opacity="1" fill-rule="nonzero"/></g></g></g><path stroke-linecap="butt" transform="matrix(0.493838, -0.56255, 0.56255, 0.493838, 17.452985, 91.150266)" fill="none" stroke-linejoin="miter" d="M 0.672514 4.242779 C 5.457729 -0.0829356 10.442361 -0.0841126 15.625932 4.246612 " stroke="#87d3ff" stroke-width="2" stroke-opacity="1" stroke-miterlimit="4"/><g clip-path="url(#58075089dd)"><g clip-path="url(#d02eb347f4)"><g clip-path="url(#0ef77c6832)"><path fill="#ececec" d="M 85.871094 98.609375 L 106.59375 116.148438 L 89.054688 136.867188 L 68.332031 119.328125 Z M 85.871094 98.609375 " fill-opacity="1" fill-rule="nonzero"/></g></g></g><path stroke-linecap="butt" transform="matrix(0.741127, 0.105208, -0.105208, 0.741127, 83.036304, 104.162596)" fill="none" stroke-linejoin="miter" d="M 0.703224 3.702316 C 4.329192 0.0989632 8.213965 0.100915 12.356809 3.703006 " stroke="#87d3ff" stroke-width="2" stroke-opacity="1" stroke-miterlimit="4"/><g clip-path="url(#cbe122d161)"><g clip-path="url(#ee003ebe02)"><g clip-path="url(#d4d151e93f)"><path fill="#ececec" d="M 72.691406 111.5 L 48.597656 85.519531 L 74.578125 61.429688 L 98.667969 87.410156 Z M 72.691406 111.5 " fill-opacity="1" fill-rule="nonzero"/></g></g></g><path stroke-linecap="butt" transform="matrix(-0.723075, -0.193651, 0.193651, -0.723075, 77.146096, 104.478329)" fill="none" stroke-linejoin="miter" d="M 0.70599 4.52415 C 5.432522 -0.177536 10.500919 -0.173561 15.90848 4.525995 " stroke="#87d3ff" stroke-width="2" stroke-opacity="1" stroke-miterlimit="4"/><g clip-path="url(#173913f456)"><g clip-path="url(#951aedee71)"><g clip-path="url(#34ecfab809)"><path fill="#ececec" d="M 123.339844 59.347656 L 103.769531 85.980469 L 77.136719 66.410156 L 96.703125 39.777344 Z M 123.339844 59.347656 " fill-opacity="1" fill-rule="nonzero"/></g></g></g><path stroke-linecap="butt" transform="matrix(-0.0540439, 0.746604, -0.746604, -0.0540439, 116.183445, 56.465987)" fill="none" stroke-linejoin="miter" d="M 0.706728 4.291223 C 5.113505 -0.0982809 9.843465 -0.0953515 14.890651 4.289978 " stroke="#87d3ff" stroke-width="2" stroke-opacity="1" stroke-miterlimit="4"/><g clip-path="url(#90878499d5)"><g clip-path="url(#352e52e954)"><g clip-path="url(#403aa7daa6)"><path fill="#ececec" d="M 60.511719 54.773438 L 58.519531 80.316406 L 32.972656 78.320312 L 34.96875 52.777344 Z M 60.511719 54.773438 " fill-opacity="1" fill-rule="nonzero"/></g></g></g><path stroke-linecap="butt" transform="matrix(0.347966, 0.662766, -0.662766, 0.347966, 54.718228, 55.620131)" fill="none" stroke-linejoin="miter" d="M 0.706003 3.552567 C 4.125338 0.149403 7.789955 0.152006 11.700085 3.548709 " stroke="#87d3ff" stroke-width="2" stroke-opacity="1" stroke-miterlimit="4"/><g clip-path="url(#8136d33d7d)"><g clip-path="url(#326cefb067)"><g clip-path="url(#457f1611a2)"><path fill="#ececec" d="M 24.238281 35.46875 L 40.875 50.683594 L 25.660156 67.324219 L 9.019531 52.105469 Z M 24.238281 35.46875 " fill-opacity="1" fill-rule="nonzero"/></g></g></g><path stroke-linecap="butt" transform="matrix(0.736546, 0.133562, -0.133562, 0.736546, 21.832496, 40.261318)" fill="none" stroke-linejoin="miter" d="M 0.353396 2.741997 C 3.359233 -0.247967 6.588644 -0.25019 10.027155 2.743255 " stroke="#87d3ff" stroke-width="1" stroke-opacity="1" stroke-miterlimit="4"/><g clip-path="url(#1b2ac289cc)"><g mask="url(#2781627003)"><g transform="matrix(1, 0, 0, 1, 0, 51)"><g clip-path="url(#d0245538e6)"><g clip-path="url(#c844e259e0)"><g clip-path="url(#b638611a9b)"><path fill="#cc0000" d="M 0 0.394531 L 129.148438 0.394531 L 129.148438 127.554688 L 0 127.554688 Z M 0 0.394531 " fill-opacity="1" fill-rule="nonzero"/></g></g></g></g></g></g></svg>