<svg width="1024" height="768" viewBox="0 0 1024 768" fill="none" xmlns="http://www.w3.org/2000/svg">
<rect x="366" y="514" width="289" height="229" rx="10" fill="#FFBD59"/>
<rect x="308" y="444" width="404" height="79" rx="10" fill="#FFBD59"/>
<rect x="408" y="444" width="205" height="12" fill="#653C01"/>
<rect x="496" y="444" width="128" height="29" transform="rotate(-90 496 444)" fill="#02BF62"/>
<path d="M489.664 137.093L501.117 149.283L511.707 162.077L521.319 175.334L529.846 188.909L537.196 202.654L543.288 216.418L548.056 230.05L551.446 243.4L553.422 256.323L553.963 268.677L553.062 280.327L551.794 286.205C551.085 289.493 550.13 292.724 548.938 295.869L548.743 296.384C547.576 299.464 546.16 302.443 544.509 305.292L544.364 305.542C542.715 308.388 540.823 311.087 538.71 313.608C536.555 316.179 534.179 318.555 531.608 320.71C529.087 322.823 526.388 324.715 523.542 326.364L523.292 326.509C520.443 328.16 517.464 329.576 514.384 330.743L513.869 330.938C510.724 332.13 507.493 333.085 504.205 333.794L498.327 335.062L486.677 335.963L474.323 335.422L461.4 333.446L448.05 330.056L434.418 325.288L420.654 319.196L406.909 311.846L393.334 303.319L380.077 293.707L367.283 283.117L355.093 271.664L343.64 259.474L333.05 246.681L323.439 233.423L314.911 219.848L307.561 206.103L301.469 192.339L296.702 178.708L293.311 165.357L291.335 152.434L290.794 140.08L291.695 128.43L292.963 122.553C293.672 119.264 294.627 116.034 295.819 112.888L296.014 112.373C297.181 109.294 298.597 106.315 300.248 103.466L300.393 103.216C302.043 100.369 303.934 97.6707 306.047 95.1496C308.202 92.5786 310.579 90.2019 313.15 88.0472C315.671 85.9342 318.369 84.0426 321.216 82.3932L321.466 82.2483C324.315 80.5972 327.294 79.1811 330.373 78.0142L330.888 77.819C334.034 76.6269 337.264 75.6723 340.553 74.9631L346.431 73.6955L358.08 72.7944L370.434 73.335L383.357 75.3113L396.708 78.7017L410.339 83.469L424.103 89.5611L437.848 96.9111L451.423 105.439L464.681 115.05L477.474 125.64L489.664 137.093Z" fill="#02BF62"/>
<path d="M468 604C482.022 583.149 489.902 582.19 504 604" stroke="#D18D24" stroke-width="10"/>
<path d="M519 604C532.633 583.149 540.294 582.19 554 604" stroke="#D18D24" stroke-width="10"/>
<path d="M569 629C523.428 653.76 497.817 654.9 452 629" stroke="#D18D24" stroke-width="10"/>
<rect x="408.092" y="136.665" width="113.35" height="11.1919" rx="5.59593" transform="rotate(45 408.092 136.665)" fill="#02AF5C"/>
<path d="M533.417 137.093L545.607 125.641L558.4 115.05L571.658 105.439L585.233 96.9115L598.978 89.5614L612.742 83.4694L626.373 78.702L639.724 75.3116L652.647 73.3353L665.001 72.7947L676.65 73.6958L682.528 74.9634C685.817 75.6726 689.047 76.6273 692.193 77.8193L692.708 78.0145C695.787 79.1814 698.766 80.5975 701.615 82.2486L701.865 82.3935C704.712 84.0429 707.41 85.9346 709.931 88.0475C712.502 90.2023 714.879 92.5789 717.034 95.1499C719.147 97.6711 721.038 100.37 722.688 103.216L722.833 103.466C724.484 106.315 725.9 109.294 727.067 112.373L727.262 112.888C728.454 116.034 729.409 119.265 730.118 122.553L731.385 128.431L732.287 140.08L731.746 152.434L729.77 165.357L726.379 178.708L721.612 192.34L715.52 206.103L708.17 219.848L699.642 233.424L690.031 246.681L679.441 259.475L667.988 271.665L655.798 283.117L643.004 293.708L629.747 303.319L616.172 311.847L602.427 319.197L588.663 325.289L575.031 330.056L561.681 333.446L548.758 335.423L536.404 335.963L524.754 335.062L518.876 333.795C515.588 333.085 512.357 332.131 509.212 330.939L508.697 330.744C505.617 329.577 502.638 328.161 499.789 326.509L499.539 326.364C496.693 324.715 493.994 322.823 491.473 320.71C488.902 318.556 486.526 316.179 484.371 313.608C482.258 311.087 480.366 308.388 478.717 305.542L478.572 305.292C476.921 302.443 475.505 299.464 474.338 296.385L474.143 295.87C472.951 292.724 471.996 289.493 471.287 286.205L470.019 280.327L469.118 268.678L469.659 256.324L471.635 243.401L475.025 230.05L479.793 216.418L485.885 202.655L493.235 188.91L501.762 175.334L511.374 162.077L521.964 149.283L533.417 137.093Z" fill="#00D46F"/>
<rect x="532.988" y="225.022" width="113.35" height="11.1919" rx="5.59593" transform="rotate(-45 532.988 225.022)" fill="#02AF5C"/>
</svg>
